<?xml version="1.0" encoding="UTF-8" standalone="no"?>
<!DOCTYPE svg PUBLIC "-//W3C//DTD SVG 1.1//EN" "http://www.w3.org/Graphics/SVG/1.1/DTD/svg11.dtd">
<svg width="100%" height="100%" viewBox="0 0 512 512" version="1.1" xmlns="http://www.w3.org/2000/svg" xmlns:xlink="http://www.w3.org/1999/xlink" xml:space="preserve" xmlns:serif="http://www.serif.com/" style="fill-rule:evenodd;clip-rule:evenodd;stroke-linecap:round;stroke-linejoin:round;stroke-miterlimit:1.5;">
    <path d="M130,492L130,422L200,422L130,492ZM391.5,20C446.968,20 492,65.033 492,120.5L492,321.5C492,376.967 446.967,422 391.5,422L120.5,422C65.033,422 20,376.967 20,321.5L20,120.5C20,65.033 65.032,20 120.5,20L391.5,20Z" style="fill:rgb(232,95,92);"/>
    <g transform="matrix(1.44326,0,0,1.18605,-274.672,-277.248)">
        <path d="M259.601,367.977L259.601,469.153" style="fill:rgb(241,145,0);stroke:white;stroke-width:22.71px;"/>
    </g>
    <g transform="matrix(1.44326,0,0,1.8638,-222.672,-560.929)">
        <path d="M259.601,367.977L259.601,469.153" style="fill:rgb(241,145,0);stroke:white;stroke-width:18px;"/>
    </g>
    <g transform="matrix(1.44326,0,0,1.35549,-170.672,-348.168)">
        <path d="M259.601,367.977L259.601,469.153" style="fill:rgb(241,145,0);stroke:white;stroke-width:21.43px;"/>
    </g>
    <g transform="matrix(1.44326,0,0,1.69436,-118.672,-490.009)">
        <path d="M259.601,367.977L259.601,469.153" style="fill:rgb(241,145,0);stroke:white;stroke-width:19.06px;"/>
    </g>
    <g transform="matrix(1.44326,0,0,2.37211,-66.6717,-769.353)">
        <path d="M259.601,367.977L259.601,469.153" style="fill:rgb(241,145,0);stroke:white;stroke-width:15.28px;"/>
    </g>
    <g transform="matrix(1.44326,0,0,1.52493,-14.6717,-414.752)">
        <path d="M259.601,367.977L259.601,469.153" style="fill:rgb(241,145,0);stroke:white;stroke-width:20.21px;"/>
    </g>
    <g transform="matrix(1.44326,0,0,1.01662,37.3283,-201.991)">
        <path d="M259.601,367.977L259.601,469.153" style="fill:rgb(241,145,0);stroke:white;stroke-width:24.03px;"/>
    </g>
</svg>
